<?xml version="1.0" encoding="UTF-8" standalone="no"?>
<!-- Created with Inkscape (http://www.inkscape.org/) -->

<svg
   width="61.956951mm"
   height="61.956951mm"
   viewBox="0 0 61.956951 61.956951"
   version="1.1"
   id="svg1"
   xml:space="preserve"
   inkscape:version="1.4.3 (0d15f75, 2025-12-25)"
   sodipodi:docname="mc.svg"
   xmlns:inkscape="http://www.inkscape.org/namespaces/inkscape"
   xmlns:sodipodi="http://sodipodi.sourceforge.net/DTD/sodipodi-0.dtd"
   xmlns="http://www.w3.org/2000/svg"
   xmlns:svg="http://www.w3.org/2000/svg"><sodipodi:namedview
     id="namedview1"
     pagecolor="#ffffff"
     bordercolor="#000000"
     borderopacity="0.25"
     inkscape:showpageshadow="2"
     inkscape:pageopacity="0.0"
     inkscape:pagecheckerboard="0"
     inkscape:deskcolor="#d1d1d1"
     inkscape:document-units="mm"
     inkscape:zoom="1.6142256"
     inkscape:cx="587.58826"
     inkscape:cy="190.80357"
     inkscape:window-width="3840"
     inkscape:window-height="2054"
     inkscape:window-x="7669"
     inkscape:window-y="-11"
     inkscape:window-maximized="1"
     inkscape:current-layer="layer1" /><defs
     id="defs1" /><g
     inkscape:label="Layer 1"
     inkscape:groupmode="layer"
     id="layer1"
     transform="translate(-55.985787,-31.389423)"><g
       id="g3"
       transform="translate(61.301325,32.453642)"><circle
         style="fill:#ecb445;fill-opacity:1;stroke-width:0.333375"
         id="path2"
         cx="25.662937"
         cy="29.914257"
         r="30.978476" /><g
         id="g2"><path
           style="fill:#4f0400;fill-opacity:1"
           d="M 1.067932,38.386259 C 0.16732595,38.201377 -0.43765009,37.366551 -0.24043809,36.580796 8.0494861e-4,35.619608 0.92201896,35.342985 2.695577,35.699166 c 1.265736,0.254196 1.610915,0.228286 2.539963,-0.190656 3.041521,-1.371534 5.902987,-7.694547 7.238347,-15.994642 0.22242,-1.382448 0.40487,-2.960026 0.40546,-3.505729 l 0.001,-0.992188 h -1.16276 c -1.7364701,0 -4.359379,0.921729 -5.822623,2.046155 -2.425082,1.863547 -2.906775,3.934494 -1.444997,6.212478 0.72094,1.123486 0.790242,1.380844 0.527266,1.958015 -0.246789,0.541642 -0.460209,0.649208 -1.154228,0.581745 -0.678532,-0.06596 -0.972802,-0.297707 -1.448954,-1.141101 -0.895907,-1.586894 -0.825184,-3.578307 0.199936,-5.629752 1.690835,-3.383661 5.100848,-5.13835 10.66397,-5.487353 1.33128,-0.08352 2.72291,-0.197963 3.0925,-0.254322 l 0.67198,-0.10247 0.48116,7.059865 c 0.26463,3.882926 0.55755,7.832343 0.65093,8.776483 l 0.16978,1.716618 1.1691,-1.981201 c 2.8525,-4.833968 6.57924,-9.955013 9.40294,-12.920941 1.68109,-1.765761 4.03915,-3.641434 4.27785,-3.402733 0.0773,0.07735 -0.27634,1.431056 -0.78599,3.008225 -0.84725,2.621904 -4.12605,14.866413 -5.03396,18.79906 -0.37168,1.609941 -0.36775,1.64793 0.19005,1.834792 0.31328,0.104947 1.42412,0.181907 2.46854,0.171022 1.83306,-0.0191 1.89165,-1.43e-4 1.68841,0.546457 -0.20306,0.546128 -0.36044,0.566249 -4.42882,0.566249 h -4.21827 l 0.71991,-2.248958 c 0.39596,-1.236927 1.3802,-4.808802 2.18722,-7.9375 0.80701,-3.128698 1.64484,-6.271484 1.86183,-6.983968 0.46418,-1.524081 0.50801,-1.564523 -1.97713,1.824593 -2.35085,3.205981 -5.28636,7.810903 -7.92723,12.435417 l -1.96421,3.439583 -0.17942,-1.322917 c -0.0987,-0.727604 -0.45505,-5.31151 -0.79192,-10.186458 -0.49921,-7.224244 -0.65238,-8.594403 -0.82819,-7.408333 -1.71959,11.601127 -5.914164,18.709236 -11.441129,19.388102 -0.582084,0.0715 -1.313791,0.07755 -1.626016,0.01346 z"
           id="path1"
           sodipodi:nodetypes="cssssccssssssssscsscsscsssssscsssssccscscc" /><path
           d="m 37.404954,47.266224 c -2.98471,-0.603051 -5.45344,-2.911265 -6.40347,-5.987111 -2.43828,-7.894226 3.24641,-18.84787 11.02915,-21.251713 2.40534,-0.742936 4.11324,-0.677782 7.07128,0.269763 l 2.50176,0.801383 -0.36087,1.199059 c -0.19847,0.659482 -0.50631,2.263391 -0.68408,3.564242 -0.26574,1.944576 -0.40488,2.365183 -0.78244,2.365183 -0.39223,0 -0.47589,-0.337782 -0.57343,-2.315104 -0.13216,-2.679121 -0.51516,-3.637615 -1.80261,-4.511219 -1.86336,-1.264387 -5.26719,-0.418418 -7.91433,1.96698 -2.17337,1.958479 -4.44759,6.436774 -5.06107,9.966059 -0.47491,2.732114 -0.22979,6.896181 0.5015,8.519325 1.12924,2.50643 2.72436,3.657846 5.06556,3.656502 2.19964,-0.0013 4.0797,-1.154141 6.27713,-3.849216 0.64041,-0.785443 1.39579,-0.745585 1.39579,0.07365 0,0.662132 -2.6768,3.505612 -4.04631,4.298264 -2.01941,1.168806 -4.29719,1.621151 -6.21356,1.233954 z"
           style="fill:#4f0400;fill-opacity:1"
           id="path1-7" /></g></g></g></svg>
